# xmcd CD database file
#
# Track frame offsets:
#	150
#	17200
#	41992
#	62807
#
# Disc length: 1072 seconds
#
# Revision: 0
# Processed by: cddbd v1.5.2PL0 Copyright (c) Steve Scherf et al.
# Submitted via: CDex 1.51
#
DISCID=34042e04
DTITLE=Switchfoot - Beautiful Letdown cd sampler
DYEAR=1900
DGENRE=Country
TTITLE0=Ammunition
TTITLE1=Album preview and interview
TTITLE2=The Elms and Burn and Shine
TTITLE3=Sanctus Real and Say It Loud
EXTD=
EXTT0=
EXTT1=
EXTT2=
EXTT3=
PLAYORDER=
